<mxfile host="app.diagrams.net" modified="2020-11-09T10:55:37.938Z" agent="5.0 (Windows NT 10.0; Win64; x64) AppleWebKit/537.36 (KHTML, like Gecko) Chrome/86.0.4240.183 Safari/537.36 Edg/86.0.622.63" etag="CUcw9NHNqAr_pulRdQvx" version="13.8.8" type="github">
  <diagram id="0NmggaU9xtNYxfDezF30" name="Page-1">
    <mxGraphModel dx="1021" dy="579" grid="1" gridSize="10" guides="1" tooltips="1" connect="1" arrows="1" fold="1" page="1" pageScale="1" pageWidth="850" pageHeight="1100" math="0" shadow="0">
      <root>
        <mxCell id="0" />
        <mxCell id="1" parent="0" />
        <mxCell id="1S-0jb5yCqWiV0_zTu6i-18" value="" style="edgeStyle=orthogonalEdgeStyle;rounded=0;orthogonalLoop=1;jettySize=auto;html=1;" edge="1" parent="1" source="1S-0jb5yCqWiV0_zTu6i-2" target="1S-0jb5yCqWiV0_zTu6i-7">
          <mxGeometry relative="1" as="geometry" />
        </mxCell>
        <mxCell id="1S-0jb5yCqWiV0_zTu6i-2" value="" style="ellipse;fillColor=#000000;strokeColor=none;" vertex="1" parent="1">
          <mxGeometry x="85" y="10" width="30" height="30" as="geometry" />
        </mxCell>
        <mxCell id="1S-0jb5yCqWiV0_zTu6i-3" value="" style="ellipse;html=1;shape=endState;fillColor=#000000;strokeColor=#000000;" vertex="1" parent="1">
          <mxGeometry x="85" y="940" width="30" height="30" as="geometry" />
        </mxCell>
        <mxCell id="1S-0jb5yCqWiV0_zTu6i-20" value="" style="edgeStyle=orthogonalEdgeStyle;rounded=0;orthogonalLoop=1;jettySize=auto;html=1;" edge="1" parent="1" source="1S-0jb5yCqWiV0_zTu6i-5" target="1S-0jb5yCqWiV0_zTu6i-6">
          <mxGeometry relative="1" as="geometry" />
        </mxCell>
        <mxCell id="1S-0jb5yCqWiV0_zTu6i-5" value="View Course" style="html=1;align=center;verticalAlign=top;rounded=1;absoluteArcSize=1;arcSize=10;dashed=0;" vertex="1" parent="1">
          <mxGeometry x="30" y="220" width="140" height="40" as="geometry" />
        </mxCell>
        <mxCell id="1S-0jb5yCqWiV0_zTu6i-21" value="" style="edgeStyle=orthogonalEdgeStyle;rounded=0;orthogonalLoop=1;jettySize=auto;html=1;" edge="1" parent="1" source="1S-0jb5yCqWiV0_zTu6i-6" target="1S-0jb5yCqWiV0_zTu6i-9">
          <mxGeometry relative="1" as="geometry" />
        </mxCell>
        <mxCell id="1S-0jb5yCqWiV0_zTu6i-6" value="Select Course" style="html=1;align=center;verticalAlign=top;rounded=1;absoluteArcSize=1;arcSize=10;dashed=0;" vertex="1" parent="1">
          <mxGeometry x="30" y="340" width="140" height="40" as="geometry" />
        </mxCell>
        <mxCell id="1S-0jb5yCqWiV0_zTu6i-19" value="" style="edgeStyle=orthogonalEdgeStyle;rounded=0;orthogonalLoop=1;jettySize=auto;html=1;" edge="1" parent="1" source="1S-0jb5yCqWiV0_zTu6i-7" target="1S-0jb5yCqWiV0_zTu6i-5">
          <mxGeometry relative="1" as="geometry" />
        </mxCell>
        <mxCell id="1S-0jb5yCqWiV0_zTu6i-7" value="Login" style="html=1;align=center;verticalAlign=top;rounded=1;absoluteArcSize=1;arcSize=10;dashed=0;" vertex="1" parent="1">
          <mxGeometry x="30" y="100" width="140" height="40" as="geometry" />
        </mxCell>
        <mxCell id="1S-0jb5yCqWiV0_zTu6i-8" style="edgeStyle=orthogonalEdgeStyle;rounded=0;orthogonalLoop=1;jettySize=auto;html=1;exitX=0.5;exitY=1;exitDx=0;exitDy=0;" edge="1" parent="1" source="1S-0jb5yCqWiV0_zTu6i-5" target="1S-0jb5yCqWiV0_zTu6i-5">
          <mxGeometry relative="1" as="geometry" />
        </mxCell>
        <mxCell id="1S-0jb5yCqWiV0_zTu6i-22" value="" style="edgeStyle=orthogonalEdgeStyle;rounded=0;orthogonalLoop=1;jettySize=auto;html=1;" edge="1" parent="1" source="1S-0jb5yCqWiV0_zTu6i-9" target="1S-0jb5yCqWiV0_zTu6i-10">
          <mxGeometry relative="1" as="geometry" />
        </mxCell>
        <mxCell id="1S-0jb5yCqWiV0_zTu6i-9" value="Fill-up Form" style="html=1;align=center;verticalAlign=top;rounded=1;absoluteArcSize=1;arcSize=10;dashed=0;" vertex="1" parent="1">
          <mxGeometry x="30" y="460" width="140" height="40" as="geometry" />
        </mxCell>
        <mxCell id="1S-0jb5yCqWiV0_zTu6i-11" style="edgeStyle=orthogonalEdgeStyle;rounded=0;orthogonalLoop=1;jettySize=auto;html=1;exitX=1;exitY=0.5;exitDx=0;exitDy=0;" edge="1" parent="1" source="1S-0jb5yCqWiV0_zTu6i-10">
          <mxGeometry relative="1" as="geometry">
            <mxPoint x="265" y="600" as="targetPoint" />
          </mxGeometry>
        </mxCell>
        <mxCell id="1S-0jb5yCqWiV0_zTu6i-10" value="Eligibility Check" style="html=1;align=center;verticalAlign=top;rounded=1;absoluteArcSize=1;arcSize=10;dashed=0;" vertex="1" parent="1">
          <mxGeometry x="30" y="580" width="140" height="40" as="geometry" />
        </mxCell>
        <mxCell id="1S-0jb5yCqWiV0_zTu6i-12" value="Eligible" style="rhombus;" vertex="1" parent="1">
          <mxGeometry x="265" y="558.75" width="81.25" height="81.25" as="geometry" />
        </mxCell>
        <mxCell id="1S-0jb5yCqWiV0_zTu6i-16" value="" style="endArrow=none;html=1;exitX=0.5;exitY=0;exitDx=0;exitDy=0;" edge="1" parent="1" source="1S-0jb5yCqWiV0_zTu6i-12">
          <mxGeometry width="50" height="50" relative="1" as="geometry">
            <mxPoint x="345" y="520" as="sourcePoint" />
            <mxPoint x="306" y="240" as="targetPoint" />
          </mxGeometry>
        </mxCell>
        <mxCell id="1S-0jb5yCqWiV0_zTu6i-23" value="No" style="edgeLabel;html=1;align=center;verticalAlign=middle;resizable=0;points=[];" vertex="1" connectable="0" parent="1S-0jb5yCqWiV0_zTu6i-16">
          <mxGeometry x="0.0714" relative="1" as="geometry">
            <mxPoint as="offset" />
          </mxGeometry>
        </mxCell>
        <mxCell id="1S-0jb5yCqWiV0_zTu6i-17" value="" style="endArrow=classic;html=1;entryX=1;entryY=0.5;entryDx=0;entryDy=0;" edge="1" parent="1" target="1S-0jb5yCqWiV0_zTu6i-5">
          <mxGeometry width="50" height="50" relative="1" as="geometry">
            <mxPoint x="305" y="240" as="sourcePoint" />
            <mxPoint x="305" y="230" as="targetPoint" />
          </mxGeometry>
        </mxCell>
        <mxCell id="1S-0jb5yCqWiV0_zTu6i-28" value="" style="edgeStyle=orthogonalEdgeStyle;rounded=0;orthogonalLoop=1;jettySize=auto;html=1;exitX=0.5;exitY=1;exitDx=0;exitDy=0;entryX=0.5;entryY=1;entryDx=0;entryDy=0;" edge="1" parent="1" source="1S-0jb5yCqWiV0_zTu6i-25" target="1S-0jb5yCqWiV0_zTu6i-27">
          <mxGeometry relative="1" as="geometry">
            <mxPoint x="100" y="770" as="sourcePoint" />
          </mxGeometry>
        </mxCell>
        <mxCell id="1S-0jb5yCqWiV0_zTu6i-25" value="Payment" style="html=1;align=center;verticalAlign=top;rounded=1;absoluteArcSize=1;arcSize=10;dashed=0;" vertex="1" parent="1">
          <mxGeometry x="30" y="700" width="140" height="40" as="geometry" />
        </mxCell>
        <mxCell id="1S-0jb5yCqWiV0_zTu6i-26" value="" style="edgeStyle=orthogonalEdgeStyle;rounded=0;orthogonalLoop=1;jettySize=auto;html=1;exitX=0.5;exitY=1;exitDx=0;exitDy=0;" edge="1" parent="1" source="1S-0jb5yCqWiV0_zTu6i-12">
          <mxGeometry relative="1" as="geometry">
            <mxPoint x="99.66" y="620" as="sourcePoint" />
            <mxPoint x="99.66" y="700" as="targetPoint" />
          </mxGeometry>
        </mxCell>
        <mxCell id="1S-0jb5yCqWiV0_zTu6i-29" value="Yes" style="edgeLabel;html=1;align=center;verticalAlign=middle;resizable=0;points=[];" vertex="1" connectable="0" parent="1S-0jb5yCqWiV0_zTu6i-26">
          <mxGeometry x="-0.117" y="2" relative="1" as="geometry">
            <mxPoint as="offset" />
          </mxGeometry>
        </mxCell>
        <mxCell id="1S-0jb5yCqWiV0_zTu6i-30" value="" style="edgeStyle=orthogonalEdgeStyle;rounded=0;orthogonalLoop=1;jettySize=auto;html=1;" edge="1" parent="1" source="1S-0jb5yCqWiV0_zTu6i-27" target="1S-0jb5yCqWiV0_zTu6i-25">
          <mxGeometry relative="1" as="geometry">
            <Array as="points">
              <mxPoint x="217" y="720" />
              <mxPoint x="217" y="720" />
            </Array>
          </mxGeometry>
        </mxCell>
        <mxCell id="1S-0jb5yCqWiV0_zTu6i-31" value="No" style="edgeLabel;html=1;align=center;verticalAlign=middle;resizable=0;points=[];" vertex="1" connectable="0" parent="1S-0jb5yCqWiV0_zTu6i-30">
          <mxGeometry x="-0.2911" y="2" relative="1" as="geometry">
            <mxPoint as="offset" />
          </mxGeometry>
        </mxCell>
        <mxCell id="1S-0jb5yCqWiV0_zTu6i-32" style="edgeStyle=orthogonalEdgeStyle;rounded=0;orthogonalLoop=1;jettySize=auto;html=1;entryX=1;entryY=0.5;entryDx=0;entryDy=0;" edge="1" parent="1" source="1S-0jb5yCqWiV0_zTu6i-27" target="1S-0jb5yCqWiV0_zTu6i-33">
          <mxGeometry relative="1" as="geometry">
            <mxPoint x="380" y="860" as="targetPoint" />
            <Array as="points">
              <mxPoint x="360" y="720" />
              <mxPoint x="360" y="840" />
            </Array>
          </mxGeometry>
        </mxCell>
        <mxCell id="1S-0jb5yCqWiV0_zTu6i-36" value="Yes" style="edgeLabel;html=1;align=center;verticalAlign=middle;resizable=0;points=[];" vertex="1" connectable="0" parent="1S-0jb5yCqWiV0_zTu6i-32">
          <mxGeometry x="0.2506" y="1" relative="1" as="geometry">
            <mxPoint as="offset" />
          </mxGeometry>
        </mxCell>
        <mxCell id="1S-0jb5yCqWiV0_zTu6i-27" value="Payment successful" style="rhombus;horizontal=1;verticalAlign=middle;whiteSpace=wrap;" vertex="1" parent="1">
          <mxGeometry x="265" y="679.38" width="81.25" height="81.25" as="geometry" />
        </mxCell>
        <mxCell id="1S-0jb5yCqWiV0_zTu6i-33" value="Start Learning" style="html=1;align=center;verticalAlign=top;rounded=1;absoluteArcSize=1;arcSize=10;dashed=0;" vertex="1" parent="1">
          <mxGeometry x="30" y="820" width="140" height="40" as="geometry" />
        </mxCell>
        <mxCell id="1S-0jb5yCqWiV0_zTu6i-37" value="" style="edgeStyle=orthogonalEdgeStyle;rounded=0;orthogonalLoop=1;jettySize=auto;html=1;" edge="1" parent="1">
          <mxGeometry relative="1" as="geometry">
            <mxPoint x="99.66" y="860" as="sourcePoint" />
            <mxPoint x="99.66" y="940" as="targetPoint" />
          </mxGeometry>
        </mxCell>
      </root>
    </mxGraphModel>
  </diagram>
</mxfile>
